<?xml version="1.0" encoding="UTF-8"?>
<svg xmlns="http://www.w3.org/2000/svg" viewBox="0 0 160 170" width="160" height="170">
  <!-- base shadow -->
  <ellipse cx="80" cy="162" rx="62" ry="6" fill="#000" opacity="0.25"/>
  <!-- chassis -->
  <rect x="14" y="16" width="132" height="142" rx="12" fill="#8f1a1a"/>
  <rect x="14" y="12" width="132" height="140" rx="12" fill="#d62828"/>
  <rect x="20" y="18" width="120" height="10" rx="5" fill="#ffffff" opacity="0.18"/>
  <rect x="26" y="36" width="108" height="28" rx="4" fill="#5c0f0f"/>
  <rect x="34" y="45" width="54" height="4" rx="2" fill="#8f1a1a"/>
  <rect x="34" y="52" width="40" height="4" rx="2" fill="#8f1a1a"/>
  <circle cx="112" cy="50" r="4.5" fill="#ff8a8a"/>
  <circle cx="124" cy="50" r="4.5" fill="#ff8a8a"/>
  <rect x="26" y="74" width="108" height="28" rx="4" fill="#5c0f0f"/>
  <rect x="34" y="83" width="54" height="4" rx="2" fill="#8f1a1a"/>
  <rect x="34" y="90" width="40" height="4" rx="2" fill="#8f1a1a"/>
  <circle cx="112" cy="88" r="4.5" fill="#ff8a8a"/>
  <circle cx="124" cy="88" r="4.5" fill="#7a2020"/>
  <rect x="26" y="112" width="108" height="28" rx="4" fill="#5c0f0f"/>
  <rect x="34" y="121" width="54" height="4" rx="2" fill="#8f1a1a"/>
  <rect x="34" y="128" width="40" height="4" rx="2" fill="#8f1a1a"/>
  <circle cx="112" cy="126" r="4.5" fill="#ff8a8a"/>
  <circle cx="124" cy="126" r="4.5" fill="#ff8a8a"/>
  <!-- vents -->
  <rect x="30" y="148" width="100" height="3" rx="1.5" fill="#8f1a1a"/>
  <!-- status badge -->
  <circle cx="137" cy="27" r="21" fill="#ef4444" stroke="#ffffff" stroke-width="3"/><rect x="134" y="14" width="6" height="16" rx="2" fill="#fff"/><circle cx="137" cy="36" r="3.5" fill="#fff"/>
</svg>
